<?xml version="1.0" encoding="UTF-8"?><svg xmlns="http://www.w3.org/2000/svg" style="display: none;"><symbol id="icon-logo" width="188.22mm" height="179.67mm" version="1.1" viewBox="0 0 188.22 179.67" xmlns="http://www.w3.org/2000/svg"><g transform="translate(-12.261 -41.457)"><path fill="param(fill) #000" stroke="param(outline) #000" stroke-width="param(outline-width) 0.26458335" d="m87.069 211.39c-0.60184-0.26774-1.3162-0.78194-1.5875-1.1427l-0.49324-0.65587-0.9726 0.49529c-2.0938 1.0662-5.1111 0.83361-7.0972-0.54712-0.54464-0.37863-1.0657-0.43757-2.9506-0.33375-2.7952 0.15397-4.2962-0.32779-5.6336-1.8081l-0.90606-1.0029-0.91702 0.86487c-1.5247 1.438-2.6477 1.8353-4.7007 1.6632-1.9855-0.16646-3.1065-0.63683-3.8892-1.6319l-0.52303-0.66492-1.1652 0.51543c-2.4147 1.0681-4.5682 0.93305-6.6425-0.41667-0.91536-0.5956-1.1684-0.63681-2.9301-0.47716-2.1102 0.19122-4.3271-0.28714-5.349-1.1542-0.88825-0.75364-2.1794-2.6725-2.3641-3.5135-0.09403-0.42813-0.30368-0.77843-0.46587-0.77843-1.2392 0-13.246 1.1223-14.074 1.3156-0.57739 0.13471-1.0953 0.19939-1.151 0.14374-0.26138-0.26137 0.32112-0.66558 0.95961-0.66591 0.94573-5.3e-4 3.9696-0.55406 9.4432-1.7288 2.4739-0.53092 5.0119-1.0713 5.6401-1.2009 0.62819-0.12957 1.2666-0.31248 1.4186-0.40646 0.39491-0.24406 0.73772 0.41473 0.74244 1.4268 0.01 2.1387 1.4119 3.7799 3.3689 3.9438 1.6352 0.13696 2.0369-0.12272 1.6725-1.0811-0.31646-0.83236-0.37278-3.3343-0.07505-3.3343 0.10988 0 0.47333 0.70546 0.80766 1.5677 2.5833 6.662 7.7544 6.3333 13.054-0.82977 1.3346-1.8039 1.4216-1.8721 1.502-1.1774 0.16564 1.4314-1.6924 5.2368-2.7562 5.645-0.60909 0.23372-0.43408 0.56656 0.75264 1.4314 0.9638 0.70238 1.2992 0.80314 2.3474 0.7052 1.4897-0.13919 2.807-1.0221 3.3058-2.2158 0.37163-0.88943 0.29937-1.321-0.56438-3.371-0.16938-0.402-0.11464-0.46568 0.29509-0.3433 1.4251 0.42568 2.0107 0.46371 2.8542 0.18534 0.74365-0.24543 1.0123-0.5361 1.3762-1.4891 0.7888-2.0654-0.12725-3.8189-2.4302-4.6516-0.49516-0.17905-0.9003-0.39235-0.9003-0.474 0-0.0817 2.5301-0.55225 5.6224-1.0458s5.8903-0.99517 6.2177-1.1148c0.36711-0.13409 0.59531-0.11535 0.59531 0.0489 0 0.14648-0.14883 0.3107-0.33073 0.36493-0.41997 0.12521-6.6565 2.3497-6.7516 2.4082-0.03896 0.024 0.16678 0.56734 0.45721 1.2075 0.72399 1.5957 0.69964 3.3618-0.06193 4.4919-0.53151 0.78872-1.8784 1.9067-2.5833 2.1443-0.42214 0.14228 0.2532 2.0362 1.0401 2.9169 0.61256 0.68557 0.97374 0.8403 2.1985 0.94187 0.85472 0.0709 1.5357 8e-3 1.6339-0.15087 0.0926-0.14982 0.04781-0.8479-0.09953-1.5513-0.30059-1.435 0.02286-3.3327 0.39839-2.3372 1.2772 3.3857 2.8191 5.3467 4.6655 5.9336 2.5353 0.80584 5.9126-1.4396 9.3838-6.2391 0.45222-0.62526 0.88064-1.0784 0.95205-1.007 0.22835 0.22836-0.26381 2.6872-0.71093 3.5518-0.2375 0.45928-0.85974 1.3087-1.3828 1.8876l-0.95094 1.0526 0.75649 0.7896c0.41607 0.43428 1.1974 0.92171 1.7363 1.0832 0.84786 0.25403 1.1469 0.21272 2.2197-0.30661 2.0865-1.01 2.7203-2.6616 1.751-4.5627-0.27246-0.53442-0.4444-1.0226-0.38208-1.085 0.06232-0.0623 0.50976 8e-3 0.99433 0.15709 1.1439 0.35107 2.5902 0.0697 3.2203-0.62654 0.36838-0.40705 0.49935-0.95356 0.49935-2.0837 0-1.827-0.42457-2.4246-2.3678-3.3329-0.75915-0.3548-1.1483-0.66099-0.92604-0.72854 0.21091-0.0641 2.8242-0.50175 5.8074-0.97261s5.5728-0.91278 5.7547-0.98206c0.1819-0.0693 0.33048-0.0239 0.33018 0.10078-2.6e-4 0.12471-1.4287 0.74361-3.1743 1.3753-1.7455 0.63172-3.2304 1.2403-3.2996 1.3523-0.0692 0.11204 0.11802 0.89774 0.41616 1.746 0.33447 0.95162 0.48345 1.8523 0.389 2.3519-0.35955 1.9017-2.1067 3.5847-3.7234 3.5867-0.78242 1e-3 -0.79375 0.0211-0.79375 1.4094 0 1.7394-0.78117 3.0192-2.5367 4.1557-1.0597 0.68605-1.446 0.78346-3.0427 0.76714-1.167-0.0119-2.225-0.19487-2.9232-0.50548zm33.619-2.3579c-0.95153-0.43218-2.7594-2.2124-2.7594-2.7173 0-0.10289-0.11435-0.48786-0.25413-0.85549-0.24211-0.63681-0.28903-0.65021-0.99218-0.28343-1.4867 0.77546-3.8903 0.21637-4.7571-1.1065-0.32819-0.50089-0.64004-0.6219-1.6026-0.6219-1.0182 0-1.3217-0.13419-2.0502-0.90671l-0.85513-0.9067-3.4756-0.18894c-1.9116-0.10391-3.4756-0.29121-3.4756-0.41621s0.50601-0.22773 1.1245-0.22829c0.61847-5.2e-4 2.196-0.17706 3.5057-0.39225 3.2837-0.53953 3.5388-0.52197 3.8377 0.26422 0.38592 1.015 1.3277 1.3347 2.3599 0.8009l0.84699-0.43799 0.97562 1.0929c1.3199 1.4786 2.562 1.6612 4.6857 0.68895 0.8323-0.38104 1.5584-0.6928 1.6136-0.6928s0.10077 0.44648 0.10131 0.99219c2e-3 2.3109 1.6533 3.5057 4.8441 3.5057 1.8898 0 2.0202-0.0394 2.6655-0.8063 0.72563-0.86237 1.4852-3.0456 1.4852-4.2688 0-0.88858 0.0132-0.89116 1.1181-0.21755 0.50282 0.30657 1.3342 0.52859 1.9816 0.52917 1.3612 1e-3 2.6664-1.0243 3.503-2.7524 0.52589-1.0863 0.62122-1.1504 1.9362-1.3011 0.7607-0.0872 1.8593-0.2395 2.4414-0.33843 1.4112-0.23987 0.99211 0.15537-0.86823 0.81883-1.4056 0.50129-1.5164 0.60632-1.9562 1.8543-0.26947 0.76484-0.82146 1.6243-1.3085 2.0372-0.85344 0.72368-2.709 1.2701-4.3132 1.2701-0.86131 0-0.88195 0.027-1.0058 1.3164-0.28495 2.9655-2.6676 4.7737-6.2766 4.7632-1.369-4e-3 -2.3379-0.15991-3.0756-0.49499zm25.906-8.597c-1.2134-0.55367-2.3709-1.8758-2.8822-3.2921-1.0547-2.9214-0.71046-9.6789 0.65236-12.806 1.6767-3.8472 5.0743-6.0623 9.2841-6.0531 2.8989 6e-3 2.9095 0.0143 2.9095 2.1645v1.8155l-2.059-0.15879c-1.7484-0.13483-2.2174-0.078-3.1088 0.37701-0.57739 0.29468-1.2536 0.76116-1.5027 1.0366-0.62723 0.69361-1.4368 2.6512-1.6266 3.9333l-0.15848 1.0705 1.2531-1.2078c1.9588-1.8881 4.0607-2.3198 6.1543-1.264 2.9869 1.5062 3.8511 7.663 1.5609 11.121-1.4318 2.1616-3.9586 3.3704-7.3918 3.5361-1.5941 0.077-2.4923-2e-3 -3.0846-0.27273zm5.3982-3.9202c1.0434-0.86525 1.4944-4.1028 0.835-5.9942-0.55555-1.5937-2.3245-1.3314-3.6919 0.54752-0.7774 1.0681-0.82002 1.2481-0.72985 3.0813 0.0829 1.685 0.18305 2.0176 0.74453 2.4723 0.71104 0.57577 2.0812 0.52422 2.8422-0.10693zm-37.457 3.518c-2.5037-0.86467-4.398-3.347-5.1028-6.6866-0.16345-0.77453-0.32388-1.4391-0.35651-1.4768-0.0326-0.0377-1.5961 0.11409-3.4744 0.33733s-4.6653 0.52322-6.1932 0.66662c-1.528 0.1434-3.1055 0.32848-3.5057 0.4113-0.40019 0.0828-0.72761 0.0348-0.72761-0.10673 0-0.30559 0.63546-0.57849 1.3471-0.57849 0.28051 0 1.9674-0.34805 3.7487-0.77344 3.1751-0.75826 9.7917-2.137 10.256-2.137 0.1293 0 0.30845 0.44649 0.3981 0.99219 0.57516 3.5009 1.9714 6.2534 3.5989 7.0951 1.2013 0.62121 4.1855 0.41352 5.8878-0.40978 2.3378-1.1306 3.4551-3.7152 2.69-6.2223-0.22206-0.7276-0.40504-1.4122-0.40661-1.5214-2e-3 -0.10914 0.50315-0.19911 1.1216-0.19992 1.6113-2e-3 2.9229-0.42793 3.6272-1.1776 0.51785-0.55123 0.58958-0.84369 0.4691-1.9126-0.12738-1.1301-0.10347-1.2089 0.22892-0.75431 0.20413 0.27917 0.37115 1.0363 0.37115 1.6825 0 0.99063-0.1394 1.3064-0.88857 2.013-0.48872 0.46092-1.3774 0.98449-1.9749 1.1635-1.017 0.30471-1.07 0.36824-0.83123 0.99637 0.94312 2.4806-0.79815 6.4278-3.4272 7.7691-1.1261 0.57448-3.9047 1.3381-4.8225 1.3254-0.3428-5e-3 -1.2576-0.22769-2.0328-0.49543zm-33.394-1.229c-0.28119-0.33882-0.26382-0.48673 0.09989-0.85045 0.41067-0.41066 0.46992-0.41066 0.88059 0 0.36372 0.36372 0.38109 0.51163 0.09989 0.85045-0.18722 0.22558-0.4303 0.41015-0.54019 0.41015s-0.35297-0.18457-0.54019-0.41015zm87.059-3.4263c0-1.5249-0.0858-1.9844-0.37059-1.9844-0.41649 0-6.2953 0.97188-7.2724 1.2023l-0.63158 0.14892 0.15224-3.2553c0.15097-3.2284 1.8187-14.125 2.2232-14.526 0.23594-0.23389 5.619-1.1364 5.7855-0.96999 0.0585 0.0585-0.60639 2.9938-1.4775 6.523-0.8711 3.5292-1.5838 6.5663-1.5838 6.7492 0 0.25781 0.35049 0.27611 1.5594 0.0814l1.5594-0.25113 0.27782-1.4894c0.15281-0.81916 0.41614-2.3886 0.58518-3.4876l0.30734-1.9983 1.8515-0.34243c1.2162-0.22493 1.941-0.25296 2.1123-0.0817 0.15225 0.15225 0.22345 1.5437 0.17111 3.344l-0.0896 3.0832 1.4123-0.1768 1.4123-0.17679-0.16942 1.5547c-0.28559 2.6209-0.28339 2.6167-1.5225 2.8913l-1.1326 0.25095-0.0773 2.0505c-0.0425 1.1278-0.12133 2.0505-0.17517 2.0505-0.0538 0-1.0311 0.17857-2.1717 0.39683-1.1406 0.21825-2.2226 0.39685-2.4045 0.39687-0.23519 4e-5 -0.33073-0.57319-0.33073-1.9843zm-82.021 1.3229c0-0.24253 0.12799-0.39831 0.28443-0.34616 0.15644 0.0521 0.28443 0.20792 0.28443 0.34616 0 0.13825-0.12799 0.29402-0.28443 0.34616-0.15643 0.0522-0.28443-0.10362-0.28443-0.34616zm-46.547-4.0349c0.01061-1.1278 0.17199-5.5033 0.35864-9.7234l0.33936-7.6729-0.64304-1.0165c-0.35367-0.55905-0.60436-1.0456-0.55708-1.0813 0.3093-0.2332 5.8812-0.9392 6.0351-0.7647 0.10511 0.11913 1.1684 1.8537 2.3628 3.8546s2.2139 3.638 2.2654 3.638c0.05154 0 1.0046-1.7493 2.1179-3.8873 1.8158-3.4871 1.9905-3.9502 1.6976-4.4975-0.17961-0.33561-0.27678-0.6555-0.21593-0.71086 0.13255-0.1206 5.0314-0.95847 5.604-0.95847 0.32784 0 0.4325 0.61363 0.57537 3.3734 0.35891 6.9334 0.63714 17.667 0.46237 17.838-0.2679 0.262-5.1242 1.0534-5.312 0.86562-0.08845-0.0884-0.13997-2.9786-0.1145-6.4226l0.04631-6.2618-0.63305 1.5452c-0.64519 1.5749-3.8494 7.2958-4.0898 7.3021-0.23672 6e-3 -2.8559-3.8262-3.7546-5.4939-0.4816-0.8937-0.94485-1.6269-1.0294-1.6293-0.08459-2e-3 -0.18222 2.8218-0.21697 6.2759-0.03474 3.4542-0.10791 6.3251-0.1626 6.3798-0.0754 0.0754-4.7492 1.0815-5.089 1.0955-0.03638 2e-3 -0.05747-0.92001-0.04686-2.0478zm67.817 0.87945c-0.24072-0.6273 0.0999-1.2608 0.62362-1.16 0.2929 0.0564 0.46382 0.3304 0.46382 0.74354 0 0.75423-0.8351 1.074-1.0874 0.41643zm-40.452-4.3561c-2.2169-1.0232-3.3891-3.271-3.8308-7.3464-0.5882-5.4263 0.66673-10.248 3.2284-12.403 1.7945-1.51 5.3599-2.4503 8.0272-2.117 2.9191 0.36471 4.8331 2.795 5.3883 6.8416 0.74587 5.4372-0.09511 9.8602-2.3667 12.447-2.1816 2.4848-7.6981 3.8459-10.446 2.5776zm5.7779-4.5243c0.85146-1.0119 1.087-2.7202 1.0402-7.5434-0.04081-4.2061-0.23235-5.138-1.1636-5.6613-0.56352-0.31666-0.76896-0.31632-1.434 2e-3 -1.5201 0.72859-2.0724 3.1935-1.92 8.5693 0.12652 4.4629 0.466 5.424 1.916 5.424 0.66975 0 1.0636-0.19956 1.5613-0.79102zm59.359 2.8087c-0.19329-0.50369 0.47983-1.0667 1.0251-0.85749 0.23089 0.0886 0.38002 0.36981 0.3314 0.62492-0.11087 0.58168-1.1539 0.76051-1.3565 0.23257zm-47.013-1.2553c-1.0026-0.39768-2.3308-1.801-2.707-2.86-0.24728-0.69617-0.31691-2.849-0.26433-8.173 0.06804-6.889 0.04634-7.263-0.46302-7.9783-0.29393-0.41278-0.53441-0.85931-0.53441-0.99229 0-0.2693 6.5912-1.442 6.9296-1.2329 0.1178 0.0728 0.21419 3.7925 0.21419 8.2659 0 5.9733 0.08432 8.2179 0.3175 8.4511 0.51488 0.51488 1.511 0.36513 2.2081-0.33194l0.64943-0.64943v-14.394l-0.67678-0.88729c-0.7955-1.043-0.92392-0.96873 2.6612-1.538 1.4552-0.23107 2.9732-0.48521 3.3734-0.56477l0.7276-0.14465v8.3074c0 9.4064-0.13371 10.317-1.7828 12.143-1.1584 1.2823-2.4146 1.9547-4.625 2.4758-1.8791 0.44304-5.0353 0.49736-6.0276 0.10374zm49.212-0.63012c0-0.24254 0.12799-0.39831 0.28443-0.34616 0.15643 0.0521 0.28443 0.20792 0.28443 0.34616 0 0.13825-0.128 0.29402-0.28443 0.34616-0.15644 0.0521-0.28443-0.10362-0.28443-0.34616zm-33.466-10.983 0.19565-9.5275-0.71481-1.0801c-0.39314-0.59408-0.67612-1.1123-0.62884-1.1516 0.11807-0.0981 6.6672-1.1942 6.7255-1.1257 0.24631 0.28948 3.3238 6.6729 4.1084 8.5217 0.55579 1.3097 1.0117 2.2622 1.0132 2.1167 2e-3 -0.14552-0.11156-2.323-0.25121-4.8389-0.2392-4.3092-0.29334-4.626-0.93416-5.4662l-0.68024-0.89184 0.74077-0.16045c1.2384-0.26825 5.4729-0.93617 5.9663-0.94109 0.43343-4e-3 0.46302 0.68028 0.46302 10.711 0 5.8936-0.0298 10.716-0.0661 10.716-0.0364 2e-4 -1.0782 0.17863-2.3151 0.39651-2.9758 0.52419-2.9667 0.5254-3.5376-0.46469-0.95293-1.6527-4.4-8.6148-4.4-8.8868 0-0.15103-0.12666-0.35288-0.28146-0.44855-0.18689-0.11551-0.23475 0.12371-0.14244 0.71199 0.0765 0.48727 0.21425 3.0387 0.30619 5.6699l0.16717 4.784-2.6586 0.44154c-1.4622 0.24284-2.7965 0.44153-2.965 0.44153-0.23005 0-0.25763-2.3733-0.11072-9.5275zm23.349-2.8172 0.14397-8.3759-1.231 0.17379c-0.67704 0.0956-1.7668 0.2495-2.4216 0.34204l-1.1906 0.16826v-1.1462c0-0.80886-0.20625-1.4438-0.70076-2.1574-0.38542-0.55616-0.65331-1.0513-0.59531-1.1003 0.17112-0.1446 16.677-2.8652 16.777-2.7652 0.10422 0.10421-0.6338 4.5096-0.77996 4.6557-0.0527 0.0527-0.94108 0.22124-1.9742 0.37458l-1.8784 0.2788-0.0296 5.9873c-0.0163 3.293-0.10559 7.1164-0.19844 8.4963l-0.16882 2.509-2.3812 0.45172c-1.3097 0.24844-2.6362 0.45884-2.9479 0.46754l-0.56665 0.0158zm8.2653 6.5615c0-0.30184 0.35157-2.0114 0.78126-3.799 0.71165-2.9606 3.3516-14.347 3.6487-15.738 0.0725-0.33902-0.11148-0.91206-0.44148-1.3755l-0.56565-0.79439 0.86825-0.14951c0.47755-0.0822 2.5351-0.43657 4.5724-0.78742 2.0373-0.35086 3.7952-0.54987 3.9065-0.44226s0.62248 1.8548 1.136 3.8827 1.6429 6.4402 2.5097 9.8051 1.5759 6.2394 1.5759 6.3878-0.19404 0.34428-0.43121 0.43529c-0.55034 0.21119-5.4726 0.95467-5.5839 0.84342-0.046-0.046-0.21401-0.82411-0.37344-1.7292-0.27276-1.5485-0.32706-1.6363-0.9196-1.4876-0.34635 0.0869-1.1952 0.23179-1.8863 0.32192-1.9299 0.25167-2.0901 0.40596-2.2942 2.2097-0.21053 1.8609-0.24036 1.882-3.3327 2.361-1.0888 0.16864-2.2476 0.3736-2.575 0.45547-0.47386 0.11848-0.59531 0.0369-0.59531-0.39994zm10.31-9.2535c0.41719-0.1639 0.3917-0.5387-0.34475-5.0684-0.43739-2.6903-0.8308-4.7739-0.87425-4.6302-0.0435 0.14366-0.38117 2.2257-0.75049 4.6268-0.36933 2.4011-0.73603 4.6479-0.8149 4.9929-0.13939 0.6098-0.10881 0.62213 1.0952 0.44157 0.68126-0.10216 1.4414-0.26539 1.6892-0.36273zm-130.7 6.4376c0-0.26608 0.26611-0.39687 0.80749-0.39687 0.44412 0 3.3909-0.71978 6.5484-1.5995 8.3127-2.316 7.4605-1.9298 7.4622-3.382 0.0045-3.744 2.2449-6.4709 6.0417-7.3535 0.82006-0.19062 1.6428-0.55911 1.8283-0.81885 0.89097-1.2474 2.6253-2.7454 3.6168-3.1241 0.68911-0.26318 1.6911-0.39024 2.6778-0.33955l1.5766 0.081 0.56684-1.2216c1.2801-2.7587 4.922-4.1488 7.6375-2.9152 1.3469 0.6119 2.7007 2.1439 2.918 3.3023 0.16623 0.88609 0.18204 0.89507 1.3462 0.76385 1.7188-0.19374 3.127 0.5199 4.0186 2.0366 0.59476 1.0117 0.71076 1.522 0.71076 3.1272v1.9182h3.8144c2.0979 0 3.7396 0.0748 3.6483 0.16615-0.09138 0.0914-2.9678 0.72006-6.3921 1.3971l-6.226 1.2309 1.041-1.0664c1.7096-1.7512 2.0388-3.3903 1.0383-5.1703-0.74221-1.3206-1.5816-1.7021-2.8442-1.2928-0.52737 0.17095-1.2565 0.51933-1.6203 0.77418l-0.66146 0.46336v-1.7952c0-1.421-0.1103-1.9189-0.52917-2.3887-1.1889-1.3333-3.528-1.7088-4.7342-0.76-0.57961 0.45592-1.7481 2.2723-1.7481 2.7174 0 0.0647 0.51945 0.42212 1.1543 0.79418 1.7463 1.0234 3.1655 2.7895 3.7436 4.6587l0.20249 0.65468-0.95218-0.72626c-4.9652-3.7871-8.8498-5.0344-11.054-3.5494-0.49446 0.33306-1.1778 1.1106-1.5186 1.7278-0.64873 1.1751-1.5017 5.3169-1.2741 6.1871 0.08156 0.3119 0.01348 0.46687-0.17769 0.4045-0.44257-0.14442-0.93895-1.7211-0.95644-3.038-0.01403-1.0566-0.0605-1.1245-0.76956-1.1245-0.9761 0-2.4461 0.99621-2.9427 1.9942-0.43102 0.86624-0.51496 2.9107-0.1799 4.3816l0.21684 0.95189-1.6755 0.1732c-3.791 0.39187-14.42 2.0039-15.221 2.3085-0.89442 0.34006-1.1384 0.30745-1.1384-0.15214zm140.49-9.9217v-9.8251l-1.3462-1.765 1.9299-0.3172c1.0614-0.17446 2.7374-0.46613 3.7244-0.64815s1.8519-0.23811 1.922-0.12464 0.047 4.9729-0.0513 10.799l-0.17881 10.593-1.3464 0.25964c-0.7405 0.1428-1.8822 0.33454-2.537 0.42609-0.65485 0.0916-1.399 0.22532-1.6536 0.29726-0.435 0.12288-0.46302-0.46363-0.46302-9.6943zm8.9958-1.5674v-9.7693l-0.69438-0.82522c-0.38191-0.45387-0.6498-0.86557-0.59531-0.91489 0.16135-0.14604 6.9051-1.24 7.0082-1.1368 0.25509 0.25509 3.8101 7.9092 4.236 9.1202 0.26866 0.76398 0.55169 1.3891 0.62895 1.3891 0.0773 0 0.0588-0.98226-0.0411-2.1828-0.0998-1.2006-0.19102-3.2431-0.20259-4.5391-0.0189-2.1127-0.0922-2.4496-0.70921-3.2585-0.3785-0.49624-0.61255-0.97788-0.52011-1.0703 0.24565-0.24565 6.7663-1.3432 6.837-1.1508 0.0329 0.0896 0.0274 4.9422-0.0122 10.784l-0.072 10.621-1.6478 0.30221c-0.90629 0.16621-2.1187 0.32803-2.6943 0.35958l-1.0465 0.0574-5.242-10.319 0.1914 11.362-2.3812 0.45453c-1.3097 0.24999-2.5301 0.46166-2.712 0.47036-0.25889 0.0124-0.33073-2.106-0.33073-9.7534zm-91.75 0.59207c0.26361-0.0691 0.57607-0.55929 0.73667-1.1557 0.45154-1.6769 1.2841-2.4321 2.9342-2.6614 0.78519-0.10913 1.7341-0.27603 2.1088-0.37089 0.50803-0.12864 0.88252-3e-3 1.4732 0.49395 0.6723 0.5657 0.93453 0.63428 1.735 0.45374 0.51865-0.11697 1.0761-0.29494 1.2388-0.39548 0.16537-0.10221 0.29579-0.0159 0.29579 0.19586 0 0.23578-0.39063 0.44114-1.0352 0.54421-0.56936 0.091-1.2134 0.23394-1.4313 0.31754-0.24856 0.0954-0.45875-0.0454-0.56429-0.37792-0.22714-0.71564-1.5473-0.99047-2.2828-0.47524-0.35943 0.25175-0.88554 0.34305-1.4495 0.25154-0.73373-0.11907-1.0199-9e-3 -1.6718 0.64291-0.43727 0.43726-0.86703 1.2155-0.96776 1.7524-0.1563 0.83311-0.27714 0.96163-0.87935 0.93516-0.43857-0.0193-0.52795-0.0753-0.24038-0.15069zm-4.5588-0.84828c-0.61586-0.17053-0.66677-0.31248-0.73856-2.059l-0.07711-1.8758-1.2458-0.33491c-0.6852-0.1842-1.3394-0.41693-1.4539-0.51719-0.11444-0.10026 1.0762-0.36385 2.6458-0.58576l2.8539-0.40347 0.48509 0.62476c0.90621 1.1671 3.9838 0.69812 4.3244-0.65903 0.2884-1.1491-0.42087-1.8926-3.0897-3.2389-3.6953-1.8642-4.7575-3.308-4.761-6.4717-0.0031-2.8213 1.8023-4.9448 5.1579-6.0667 1.5172-0.50726 5.4165-0.82553 6.8407-0.55836l0.96455 0.18095v4.484l-0.7276-0.19157c-1.1741-0.30912-4.6452-0.22096-5.2885 0.13432-0.81877 0.45216-1.0272 1.477-0.47255 2.3235 0.26685 0.40726 1.2709 1.0588 2.4766 1.6071 3.5152 1.5986 4.5842 2.761 5.1005 5.5463 0.2107 1.1365 0.20675 1.912-0.01479 2.9047l-0.30223 1.3543-1.02-0.3514c-0.7279-0.25078-1.2735-0.2787-1.9053-0.0975-0.48694 0.13965-1.383 0.25391-1.9913 0.25391-1.4061 0-2.554 0.91503-3.0628 2.4416-0.33735 1.012-0.47788 1.1332-1.6734 1.4432-1.4247 0.36937-2.018 0.39148-3.0249 0.11267zm18.778-2.5797c-0.0039-0.12492-7.94e-4 -3.9478 0.0069-8.4954 0.0077-4.5475-0.01894-8.2681-0.0591-8.2679s-1.0851 0.17863-2.322 0.39652c-1.2369 0.21788-2.2787 0.39631-2.3151 0.39651s-0.06615-0.61066-0.06615-1.3575c0-0.91378-0.18011-1.6493-0.55075-2.249-0.35209-0.56969-0.43533-0.89113-0.23078-0.89113 0.17598 0 3.888-0.60374 8.249-1.3416 4.361-0.7379 7.9666-1.3034 8.0126-1.2568 0.0459 0.0467-0.0266 0.73972-0.16117 1.5401-0.13458 0.80037-0.30371 1.8191-0.37586 2.2639-0.12659 0.78048-0.20033 0.82033-2.1132 1.1417l-1.982 0.33303v8.2847c0 6.3183-0.0785 8.3439-0.33073 8.5342-0.1819 0.13722-1.2832 0.39897-2.4474 0.58167s-2.3846 0.39557-2.712 0.47305c-0.32742 0.0775-0.59848 0.0387-0.60236-0.0862zm13.236-1.1532c0-0.14552 0.37101-0.26459 0.82446-0.26459s1.9417-0.26598 3.3073-0.59107l2.4828-0.59107v-1.2742c0-1.416 0.53377-2.6776 1.3083-3.0921 0.76435-0.40907 2.3153-0.32829 3.2689 0.17026 0.46572 0.24347 1.2337 0.41834 1.7066 0.38858 0.49559-0.0312 0.8599 0.0728 0.8599 0.24542 0 0.20466-0.398 0.24595-1.2568 0.13039-0.69123-0.093-1.9331-0.23422-2.7597-0.31379-1.4648-0.14101-1.5134-0.12432-1.9182 0.6585-0.22844 0.44175-0.41534 1.451-0.41534 2.2428 0 1.6684 0.20123 1.5572-3.9457 2.1808-2.9571 0.4447-3.4626 0.46075-3.4626 0.10995zm2.254-2.0103c-2.3814-0.87168-3.6426-3.0191-4.1548-7.0745-0.55489-4.3934 0.30203-8.9384 2.1719-11.52 1.0413-1.4375 2.5229-2.3796 4.685-2.9791 4.5767-1.2691 7.7562 0.08 9.0826 3.8539 0.68509 1.9492 1.056 6.1232 0.77046 8.6696-0.2285 2.0376-1.0734 4.6616-1.6073 4.9915-0.16939 0.10469-0.79812-0.0322-1.3972-0.30428-0.60943-0.27676-1.6982-0.49719-2.4717-0.50044l-1.3825-6e-3 0.26728-0.70299c0.39516-1.0394 0.80297-7.1039 0.61103-9.0866-0.0916-0.94589-0.32353-2.1068-0.51545-2.5797-0.31296-0.7712-0.45951-0.8599-1.4208-0.8599-2.2338 0-2.7953 1.534-2.7601 7.5406 0.03 5.1278 0.36577 6.3545 1.8896 6.904 0.0379 0.0137-0.11089 0.53466-0.33073 1.1577s-0.3997 1.4039-0.3997 1.7352c0 0.4377-0.22772 0.6817-0.83323 0.89278-0.98962 0.34499-0.88281 0.3514-2.2044-0.13234zm-71.839-1.6233c0-0.13825 0.70421-0.46459 1.5649-0.72519 1.5014-0.45458 1.5764-0.51947 1.8481-1.5985 0.50126-1.9907 2.2994-3.1035 5.0957-3.1535 0.914-0.0164 0.97725-0.0741 1.1315-1.0338 0.41045-2.5538 2.0239-4.1746 4.6518-4.6729 3.1314-0.59386 6.0167 0.82626 6.8926 3.3924 0.22676 0.66439 0.40589 0.83363 0.7362 0.69556 1.7225-0.72002 4.1183-0.25341 4.8687 0.94827 0.24301 0.38912 0.61798 0.52084 1.4827 0.52084 0.98483 0 1.2839 0.1381 2.0057 0.92604 0.79547 0.86845 0.95402 0.92726 2.5492 0.94566 0.93555 0.0108 2.2368 0.10891 2.8916 0.21806l1.1906 0.19845-1.3229 0.20421c-0.7276 0.11232-2.2718 0.36227-3.4314 0.55545-2.1835 0.36372-2.5217 0.33095-2.5217-0.24435 0-0.18714-0.24409-0.56115-0.54242-0.83114-0.55176-0.49934-0.61839-0.49238-2.3698 0.24767-0.25946 0.10962-0.49048-0.0385-0.66146-0.42398-0.35059-0.79052-1.893-1.7967-2.7493-1.7935-0.37866 1e-3 -1.3254 0.29907-2.1038 0.66145-0.77843 0.36239-1.463 0.65888-1.5214 0.65888-0.05831 0-0.10602-0.45864-0.10602-1.0192 0-1.3387-0.94048-2.7248-2.1258-3.133-1.2076-0.41591-3.3949-0.42107-4.2242-0.01-0.8349 0.41388-1.7663 2.3051-1.9914 4.0438l-0.17312 1.3368-1.2922-0.63952c-0.85716-0.4242-1.5156-0.58346-1.9556-0.47303-0.97077 0.24365-2.3644 1.5682-2.9003 2.7565-0.45088 0.99988-0.52232 1.042-2.0372 1.2003-0.86344 0.0902-1.8645 0.23803-2.2246 0.32841-0.36011 0.0904-0.65474 0.0512-0.65474-0.0871zm86.434-9.9232c0.16819-9.582 0.16496-9.6671-0.40187-10.584-0.58677-0.94941-0.72279-1.378-0.37298-1.1752 0.10914 0.0633 1.0914-0.0472 2.1828-0.24546 1.0914-0.19829 2.4756-0.43578 3.0759-0.52776l1.0915-0.16724 1.7135 3.5372c0.94246 1.9454 2.0467 4.3408 2.4539 5.3231 0.40721 0.98227 0.76834 1.7859 0.8025 1.7859 0.0342 0-3e-5 -2.0538-0.076-4.5641l-0.13812-4.5641-0.78934-1.0044c-0.43414-0.55242-0.74523-1.0398-0.6913-1.083 0.0539-0.0432 1.2887-0.27233 2.7439-0.50916 1.4552-0.23682 3.0328-0.50851 3.5057-0.60376l0.8599-0.17318v21.487l-0.59531 0.13993c-1.9994 0.46996-4.5901 0.85629-4.7402 0.70689-0.40264-0.40065-3.7161-6.7048-4.3468-8.2701-0.81206-2.0155-1.3144-2.6451-1.0704-1.3416 0.0908 0.4853 0.24354 3.052 0.33933 5.7037l0.17416 4.8213-1.4288 0.3125c-0.78585 0.17188-2.1112 0.38955-2.9452 0.48372l-1.5164 0.17121zm22.31 6.597c0-0.0865 0.71165-0.29736 1.5814-0.46848 1.2936-0.2545 1.7028-0.4703 2.2484-1.1855 1.8492-2.4244 3.7693-2.8643 7.1104-1.629 1.2333 0.45597 0.67123 0.82393-0.67071 0.43906-2.2362-0.64133-4.135-0.0841-5.6183 1.6488-0.84081 0.9823-0.98676 1.0453-2.7694 1.1947-1.035 0.0868-1.8818 0.087-1.8818 5.2e-4zm-2.9104-9.9348c0-9.3564-0.0217-9.7846-0.52917-10.43-0.29104-0.37-0.52916-0.78334-0.52916-0.91853 0-0.13518 1.9348-0.56622 4.2995-0.95786s5.6092-0.94552 7.2099-1.2309 2.9402-0.52013 2.9766-0.52176c0.12948-6e-3 0.0634 2.0601-0.10531 3.2907-0.0943 0.68799-0.30266 1.286-0.46302 1.3289s-1.125 0.21952-2.1436 0.39251-2.4772 0.444-3.2412 0.60224l-1.3891 0.28773v1.81c0 0.99549 0.10591 1.81 0.23535 1.81 0.24727 0 4.2325-0.71035 5.2548-0.93664 0.57787-0.12792 0.59531-0.0711 0.59531 1.9383v2.0701l-3.0313 0.49253c-2.1376 0.34732-3.0769 0.61143-3.186 0.89579-0.0851 0.2218-0.0734 1.2286 0.026 2.2373l0.18072 1.8341 1.2194-0.16379c0.67067-0.0901 2.1719-0.34045 3.3361-0.55639 2.9481-0.54681 2.7781-0.61119 2.7781 1.0522 0 1.3469-0.2674 1.8282-0.66145 1.1906-0.21789-0.35255-2.645-0.33461-3.9688 0.0293-0.65995 0.18144-1.6068 0.81221-2.5154 1.6757-1.4892 1.4153-2.87 2.0433-5.2237 2.3757l-1.1245 0.15883v-9.757zm18.521 8.4031c0-0.1029 0.59089-0.32883 1.3131-0.50208l1.3131-0.31501-0.56342-0.76206c-1.1104-1.502-0.42119-3.3153 1.5014-3.9498 0.70525-0.23276 0.91176-0.50369 1.284-1.6846 0.24397-0.77397 0.43848-1.6349 0.43225-1.9131-6e-3 -0.27825-0.86943-2.1728-1.9182-4.2101l-1.9069-3.7042-1.4552-0.46817c-2.5666-0.8257-3.4418-1.3008-3.6067-1.9578-0.31499-1.255 1.2097-2.6434 3.739-3.4045 2.4312-0.73164 6.134-1.1324 7.8352-0.84811 1.3736 0.2296 3.145 2.0974 3.145 3.3161 0 0.82566 2.0156 4.696 2.9359 5.6374 0.50172 0.51325 0.76941 1.1368 0.90205 2.1012 0.214 1.556 0.0273 2.051-1.5307 4.0594-0.55122 0.71054-0.93666 1.3574-0.85654 1.4376 0.0801 0.0801 0.28657 5e-3 0.45877-0.16741 0.1722-0.1722 0.56618-0.31309 0.87552-0.31309 0.30933 0 0.85106-0.30897 1.2038-0.68659 0.95931-1.0269 1.9256-1.434 3.8239-1.6113l1.7123-0.1599v-0.97845c0-2.715 2.4986-4.7709 5.7849-4.76 1.1226 4e-3 2.1382 0.17957 2.8163 0.48763 1.285 0.58375 2.7414 2.1784 2.9522 3.2324 0.17532 0.87657 0.23524 0.89618 1.1466 0.3752 1.2908-0.7379 2.6143-0.44955 4.0397 0.88018 0.52473 0.4895 1.0412 0.69097 1.8213 0.71054 0.87795 0.022 1.239 0.19531 1.8637 0.89451 0.77069 0.86255 0.79104 0.86799 3.8011 1.0162 1.6644 0.082 3.0263 0.2256 3.0263 0.31916 0 0.16791-5.7132 1.0773-6.755 1.0752-0.35793-7.9e-4 -0.64114-0.27617-0.84835-0.82511-0.27963-0.74084-0.39903-0.81041-1.1825-0.68905-0.47929 0.0742-1.1279 0.21783-1.4412 0.31907-0.44101 0.14246-0.61081 0.0549-0.75123-0.38754-0.25026-0.78851-1.6624-1.5913-2.8013-1.5924-0.52104-5.3e-4 -1.5331 0.29617-2.249 0.65936-0.71588 0.3632-1.3162 0.66085-1.3341 0.66146-0.0179 5.3e-4 -0.0919-0.61696-0.16446-1.3724-0.10185-1.0599-0.29171-1.5109-0.83163-1.9753-1.5938-1.3709-5.1039-1.4977-6.1323-0.22153-0.67127 0.83304-1.4412 2.9196-1.4394 3.9011 2e-3 0.86827-0.10577 0.8899-0.98483 0.19844-0.44115-0.34702-1.0734-0.52917-1.8366-0.52917-0.95184 0-1.3094 0.1489-1.9629 0.81737-0.43945 0.44956-0.76286 0.8979-0.71869 0.99632 1.1751 2.6181 1.3869 2.8714 2.3293 2.7863 2.7651-0.24955 6.4084-0.32111 6.1961-0.12169-0.2259 0.21221-6.6027 1.3484-7.545 1.3443-0.23878-1e-3 -0.63766-0.47822-0.91635-1.0963-1.1715-2.598-2.1748-2.9807-3.5468-1.353-0.54249 0.64364-0.88529 0.87382-0.97582 0.65525-0.0768-0.18531-0.51566-0.89969-0.97534-1.5875-0.68663-1.0274-0.97742-1.2506-1.6295-1.2506-0.68662 0-0.89421 0.18747-1.5381 1.3891-0.65833 1.2284-0.84188 1.3892-1.5875 1.3905-1.2468 2e-3 -2.7926 0.49279-3.3691 1.0693-0.41967 0.41966-0.45934 0.63369-0.22978 1.2396 0.1526 0.40279 0.52797 0.99977 0.83414 1.3266 0.30618 0.32685 0.50661 0.63715 0.4454 0.68956-0.2356 0.20173-3.9478 0.58842-3.9478 0.41124zm12.648-9.8647c-0.051-0.35707-0.27157-0.56164-0.60568-0.56164-0.60538 0-0.88976 0.88824-0.38438 1.2006 0.52949 0.32724 1.0775-0.0264 0.99006-0.63895zm-1.8943-0.30043c0.20044-0.52234-0.36715-1.1966-0.85099-1.0109-0.38852 0.14909-0.51436 0.92158-0.20115 1.2348 0.31205 0.31205 0.89401 0.18823 1.0521-0.22386zm-2.7092-1.0036c0.99213-0.72546-0.0625-2.5248-1.099-1.875-0.57413 0.3599-0.74197 1.3282-0.31865 1.8383 0.39324 0.47382 0.80536 0.4845 1.4177 0.0368zm5.3171-0.57686c0-0.58372-0.82256-0.8744-1.2539-0.4431-0.4447 0.4447-6e-3 1.1476 0.65737 1.0533 0.3903-0.0554 0.59649-0.26636 0.59649-0.61024zm-2.0365-0.56797c0.0444-0.30943-0.0946-0.626-0.31138-0.70917-0.50369-0.19328-1.0667 0.47983-0.85749 1.0251 0.22557 0.58783 1.0721 0.35901 1.1689-0.31594zm-1.2708-2.3461c0-0.21829-0.17859-0.39688-0.39687-0.39688-0.21829 0-0.39688 0.17859-0.39688 0.39688 0 0.21828 0.17859 0.39687 0.39688 0.39687 0.21828 0 0.39687-0.17859 0.39687-0.39687zm-4.3656-1.3266c0-0.28904 0.1553-0.64774 0.34513-0.7971 0.5244-0.41262 0.10431-1.236-0.52819-1.0352-0.32818 0.10416-0.63614 2e-3 -0.84248-0.28059-0.29323-0.40101-0.35885-0.40425-0.66704-0.0329-0.18801 0.22653-0.29035 0.56471-0.22744 0.7515 0.0629 0.18679-0.0514 0.46183-0.25397 0.61119-0.59919 0.44174-0.1374 1.2094 0.61407 1.0208 0.40093-0.10063 0.63387-0.0442 0.63387 0.15357 0 0.17197 0.20836 0.27254 0.46303 0.2235 0.25564-0.0492 0.46302-0.32456 0.46302-0.61472zm4.9702-1.1442c-0.57515-0.135-0.72337 0.15681-0.32405 0.63796 0.32567 0.39242 0.37084 0.38733 0.53074-0.0598 0.11327-0.31673 0.0405-0.52018-0.20669-0.57821zm1.2475 0.47079c0-0.13693-0.11906-0.24896-0.26458-0.24896s-0.26458 0.18562-0.26458 0.41249 0.11906 0.3389 0.26458 0.24897c0.14552-0.0899 0.26458-0.27556 0.26458-0.4125zm-3.175-0.64584c0-0.21828-0.17859-0.39687-0.39687-0.39687s-0.39688 0.17859-0.39688 0.39687 0.1786 0.39688 0.39688 0.39688 0.39687-0.1786 0.39687-0.39688zm2.6458-0.39687c0-0.14552-0.20836-0.26276-0.46302-0.26054-0.3957 3e-3 -0.40532 0.0413-0.0662 0.26054 0.49933 0.32269 0.52917 0.32269 0.52917 0zm-3.9716-2.2455c0.40503-0.48804 0.15266-1.6091-0.41091-1.8254-0.51603-0.19802-1.3206 0.20749-1.5385 0.77543-0.42199 1.0997 1.1884 1.967 1.9494 1.05zm-124.45 15.633c-0.23486-0.49494-0.42702-1.1456-0.42702-1.446 0-1.324 2.8931-3.4158 5.3641-3.8784 0.98862-0.18508 0.99642-0.19637 0.79375-1.1485-0.81231-3.8161 1.4689-7.5483 5.3455-8.7457 2.223-0.6866 4.6608-0.7087 6.0914-0.0552 2.1654 0.98911 3.986 3.643 4.7425 6.9133l0.33664 1.4552 1.2969-0.0444c0.71329-0.0245 3.9124-0.34585 7.109-0.71425 5.2544-0.60553 6.735-0.68798 5.669-0.31567-0.51096 0.17845-10.963 2.4646-13.397 2.9303-1.0951 0.20952-2.0773 0.32762-2.1827 0.26245-0.10545-0.0652-0.25764-0.74706-0.3382-1.5153-0.30207-2.8807-1.9947-6.0888-3.6943-7.002-2.2309-1.1987-6.7136-0.13291-8.3207 1.9783-1.4928 1.9612-1.6287 3.154-0.722 6.3389 0.15162 0.53259 0.07562 0.59572-0.72128 0.59922-1.3402 6e-3 -4.1546 0.73156-5.2713 1.3592-1.5783 0.88703-1.9078 2.2483-0.83883 3.4656 0.36579 0.41655 0.36567 0.46302-0.0011 0.46302-0.22425 0-0.5999-0.40495-0.83476-0.89988zm24.882-8.3758c0.15393-0.15393 0.70549-0.33266 1.2257-0.39718 0.5202-0.0645 3.5435-0.86132 6.7184-1.7707l5.7725-1.6533 0.16692-1.867c0.1891-2.1152 0.82704-3.5562 2.125-4.8002 1.009-0.96703 2.8053-1.829 4.3339-2.0797 0.8191-0.13432 1.2039-0.39459 1.7671-1.1954 1.4779-2.1012 4.2025-3.36 6.5057-3.0057 0.9452 0.14541 0.99114 0.11444 1.4388-0.97011 0.25435-0.61617 0.41609-1.1667 0.35943-1.2233-0.05666-0.0567-2.5865 0.39626-5.6218 1.0065-6.6329 1.3335-7.2386 1.4277-7.2386 1.1265 0-0.12866 1.0267-0.44525 2.2815-0.70354 2.3429-0.48227 7.9231-2.3848 11.613-3.9596 1.9644-0.83825 2.1026-0.95209 2.4607-2.0263 0.66961-2.0088 2.6455-3.5148 5.369-4.092 0.61435-0.13021 0.70613-0.30124 0.83578-1.5574 0.30244-2.9303 1.9947-5.0844 4.5341-5.7715 2.3941-0.64781 6.3836 0.48631 7.5695 2.1518 0.3 0.42132 0.70659 1.2176 0.90354 1.7696 0.21652 0.60682 0.50026 0.96683 0.7177 0.91064 1.2196-0.31519 3.4789-0.33641 4.1959-0.0394 1.0217 0.4232 2.9013 2.5334 3.088 3.4669l0.14103 0.70518 1.0975-0.62762c1.3417-0.76723 2.0056-0.7889 3.3384-0.10896 0.70203 0.35815 1.132 0.80947 1.3527 1.4198 0.31963 0.88393 0.34752 0.89677 2.3075 1.0624 1.0912 0.0922 2.8292 0.17457 3.8623 0.18295 1.0331 8e-3 2.3546 0.10805 2.9366 0.22148l1.0583 0.20623-0.92605 0.17786c-0.50932 0.0978-2.3865 0.397-4.1716 0.66484s-3.318 0.5595-3.4067 0.64813c-0.0886 0.0886 0.19962 0.4647 0.64056 0.83572 0.44093 0.37102 1.0214 1.21 1.29 1.8643 0.36123 0.88014 0.59158 1.1419 0.88517 1.0059 0.21829-0.10111 1.0828-0.23144 1.921-0.28961 1.456-0.10103 1.5666-0.0633 2.4738 0.84392 0.77581 0.77581 1.145 0.94969 2.0165 0.94969 0.87204 0 1.2228 0.16547 1.9217 0.90645 0.76732 0.81359 1.0483 0.92551 2.7432 1.0925 1.0386 0.10233 1.8883 0.27417 1.8883 0.38185 0 0.18279-4.7747 0.90594-4.8762 0.73852-0.85432-1.4088-1.0008-1.5318-1.8239-1.5318-0.47686 0-1.0007 0.13371-1.1642 0.29713-0.21979 0.21979-0.56726 0.0132-1.3349-0.79375-0.91245-0.95919-1.1784-1.0902-2.2032-1.0851-0.641 3e-3 -1.6845 0.24132-2.3188 0.52916-0.63436 0.28785-1.1847 0.52336-1.223 0.52336s-0.14426-0.46704-0.23554-1.0379c-0.34068-2.1305-1.9619-3.1909-4.883-3.194-1.1961-1e-3 -1.523 0.11206-2.1596 0.74875-0.73733 0.73733-1.5903 2.9864-1.5903 4.1931v0.61396l-0.98827-0.52969c-1.2273-0.6578-2.3618-0.67246-3.3166-0.0428-0.82504 0.54402-2.0451 2.0902-2.0451 2.5917 0 0.4826-0.37436 0.64357-2.0599 0.88577-0.83158 0.11949-1.631 0.25868-1.7765 0.30931-0.14552 0.0506-0.27582-0.027-0.28955-0.17253-0.0137-0.14553 0.5773-0.44612 1.3134-0.66799 1.189-0.35837 1.3586-0.50243 1.5198-1.2904 0.40492-1.9798 2.0399-3.151 4.7409-3.3959l1.579-0.14318v-0.89983c0-2.4575 2.6454-4.8475 5.3656-4.8475 0.77821 0 0.7869-0.0158 0.65449-1.1905-0.16198-1.4371-0.56803-1.9845-1.472-1.9845-1.1292 0-2.2871 1.0017-2.788 2.4121-0.29921 0.84245-0.78208 1.5282-1.4171 2.0126-0.85249 0.65022-1.1883 0.73469-2.921 0.73469h-1.9578l-1.0394-1.1142c-1.3022-1.396-1.3371-1.85-0.0764-0.99445 1.2791 0.86804 2.0847 0.82421 3.7932-0.20642 1.8668-1.1261 2.1784-1.9596 1.3305-3.558-1.2618-2.3785-3.2145-2.7634-6.6158-1.3042-0.32565 0.13971-0.402-0.11097-0.42543-1.3968-0.0545-2.9936-1.4662-4.2616-4.7339-4.252-3.6067 0.0105-5.424 1.6156-5.424 4.7907 0 0.88712 0.0909 1.0357 0.7276 1.189 2.7901 0.67176 5.0938 2.9086 5.093 4.9454-1.5e-4 0.41911-0.15524 0.26488-0.56396-0.56083-1.4171-2.863-4.0901-3.8589-7.5773-2.8233-1.6816 0.49937-2.8969 1.4948-3.532 2.8929-0.66505 1.4641-0.62702 1.6607 0.36257 1.8743 2.2476 0.48513 4.0487 2.0652 4.3253 3.7946l0.15778 0.98674 1.4957-0.10459c1.2384-0.0866 1.655 2e-3 2.4218 0.51627 1.4198 0.95191 2.1613 2.6322 2.0646 4.6785l-0.0794 1.6807 3.9684-0.0297c2.1826-0.0163 5.1292-0.10504 6.548-0.19714 4.9651-0.32231 2.5249 0.31308-6.2846 1.6364-4.8746 0.73223-8.859 1.268-8.8544 1.1906 5e-3 -0.0774 0.41938-0.54972 0.9217-1.0496 1.6465-1.6386 1.833-3.737 0.48936-5.5072-0.55439-0.73044-0.8199-0.85975-1.7636-0.8589-0.64307 5.3e-4 -1.4759 0.22344-1.9773 0.52916-0.47646 0.2905-0.90832 0.52818-0.95969 0.52818-0.0514 0-0.036-0.50961 0.0343-1.1325 0.27117-2.4058-1.0551-3.8616-3.6183-3.9715-1.0602-0.0454-1.422 0.064-2.0026 0.606-0.64972 0.60646-1.8661 2.617-1.6678 2.7567 0.04653 0.0328 0.6376 0.37608 1.3135 0.76292 1.3674 0.78264 2.3738 1.8642 3.1494 3.3844 0.68979 1.3521 0.65934 1.7839-0.0788 1.1175-2.1445-1.936-5.9658-3.9221-8.088-4.2036-3.3949-0.45034-5.5132 1.986-5.8059 6.6777-0.07564 1.2125-0.2159 2.2045-0.31167 2.2045-0.26439 0-0.78415-1.5925-0.97556-2.989-0.19761-1.4417-0.55688-1.5612-2.1894-0.72838-1.5202 0.77555-1.9797 1.9598-1.8107 4.6673l0.13602 2.1802-1.623 0.17977c-0.89263 0.0989-2.7541 0.34752-4.1365 0.55253-1.3824 0.20502-3.7637 0.55864-5.2917 0.78584-1.528 0.22719-3.2544 0.52152-3.8365 0.65404-1.4739 0.33558-2.162 0.32571-1.8103-0.0259zm-1.8435-0.44774c-0.06224-0.10914-0.19826-0.66915-0.30229-1.2445-0.43485-2.405-2.4711-4.9962-4.7871-6.0919-1.8627-0.8812-4.809-0.92555-7.2275-0.10881-0.90953 0.30715-1.7052 0.50694-1.7682 0.44398-0.06297-0.063 1.2039-3.5587 2.8153-7.7684 1.6114-4.2096 4.0676-10.66 5.4583-14.335 1.3907-3.6744 2.6088-6.6807 2.7068-6.6807 0.09804 0 0.88491 0.8887 1.7486 1.9749s1.6299 1.977 1.7026 1.9795c0.07276 3e-3 4.2399-7.3719 9.2604-16.388 5.0205-9.0157 9.1939-16.395 9.2744-16.399 0.08043-0.0039 1.3901 1.5397 2.9104 3.4303 1.5203 1.8905 2.8237 3.434 2.8965 3.4299 0.07276-0.0041 5.1329-7.3233 11.245-16.265 6.1119-8.9416 11.172-16.256 11.245-16.253 0.0728 0.0023 3.9423 6.9018 8.599 15.332 4.6567 8.4304 8.5262 15.329 8.599 15.329 0.0728 7.94e-4 1.6801-1.4238 3.5719-3.1657s3.4991-3.1637 3.5719-3.1595 3.347 5.8514 7.276 12.994c3.9291 7.1423 7.8405 14.235 8.6922 15.76l1.5484 2.7743 1.6657-1.6068 6.8588 9.5638 0.67167-0.88181c1.1747-1.5423 1.8138-2.2356 1.9351-2.0994 0.21858 0.24547 7.071 11.918 7.071 12.045 0 0.0691-0.46488 0.12569-1.0331 0.12569-0.97219 0-1.0799-0.0831-1.8284-1.4093-1.0828-1.9186-1.8982-2.4251-3.921-2.4356-0.8927-5e-3 -1.796-0.15185-2.0072-0.32718-0.21126-0.17534-0.89528-0.49914-1.52-0.71957-1.8562-0.65491-3.6813 0.18445-5.2387 2.4093-0.41177 0.58824-0.86418 0.87203-1.5765 0.98893-1.6161 0.2652-2.6519 1.0559-2.9802 2.2751l-0.28823 1.0704h-1.568c-1.2945 0-1.6171-0.0918-1.8497-0.52643-0.36641-0.68463-1.4268-1.2152-2.9119-1.4568-0.89792-0.14612-1.3742-0.41399-1.9375-1.0896-0.68255-0.81872-0.87201-0.89586-2.2002-0.89586-0.79933 0-1.6854 0.1242-1.969 0.27599-0.56238 0.30098-0.70883 0.11791-0.83543-1.0444-0.0635-0.58261 0.10871-0.68668 2.0474-1.2376 8.6846-2.4678 8.489-2.3782 5.6885-2.6051-1.2369-0.10021-2.6657-0.22874-3.175-0.28562-0.50932-0.0569-2.1167-0.17462-3.5719-0.26166-4.204-0.25143-4.4408-0.31288-4.9087-1.2739-0.60401-1.2406-2.4187-2.1095-3.9548-1.8936-0.65485 0.092-1.3037 0.27661-1.442 0.41016-0.35687 0.34475-0.67469 0.30058-0.67469-0.0938 0-0.6363-1.5883-2.2624-2.7673-2.8332-0.86931-0.42082-1.6667-0.56989-3.0256-0.56559l-1.8452 6e-3 -0.57373-1.1852c-0.99337-2.052-2.9066-3.1004-6.2574-3.4287-4.8326-0.4735-7.4584 1.2912-8.1137 5.4527l-0.28794 1.8287-1.3668 0.39733c-1.6646 0.48391-3.712 2.238-4.6228 3.9604-0.54779 1.0359-0.85183 1.2898-2.0959 1.7503-10.337 3.826-19.295 7.2327-19.219 7.3088 0.1614 0.16141 12.676-1.7912 13.168-2.0545 0.29565-0.15823 0.52218-0.15116 0.62771 0.0196 0.09082 0.14695-0.05079 0.33702-0.31467 0.4224-1.5206 0.49196-2.0829 0.83033-3.3314 2.005-0.98284 0.92469-1.7242 1.3771-2.568 1.5673-4.0862 0.921-6.0511 3.0454-6.3373 6.852l-0.14924 1.9844-7.1438 2.0424c-8.3576 2.3894-7.2201 2.1019-7.358 1.8602zm5.0994-2.3035c0.39665-0.47793 0.14192-0.93763-0.51955-0.93763-0.59476 0-0.89659 0.40872-0.69321 0.93872 0.18942 0.49361 0.80265 0.49307 1.2128-1e-3zm2.3909-2.5407c0-0.13693-0.17859-0.24897-0.39688-0.24897-0.40915 0-0.52565 0.3122-0.22768 0.61017 0.21138 0.21138 0.62455-0.0276 0.62455-0.3612zm13.709-9.5794c0.1053-0.54678-0.6585-0.91522-1.0616-0.5121-0.40312 0.40312-0.03468 1.1669 0.5121 1.0616 0.25343-0.0488 0.50072-0.29609 0.54952-0.54952zm64.476-2.7045c0-0.60538-0.88824-0.88976-1.2006-0.38438-0.32724 0.5295 0.0264 1.0775 0.63895 0.99006 0.35706-0.051 0.56164-0.27156 0.56164-0.60568zm-71.791-20.328c3.5889-3.4464 6.6319-6.2663 6.7623-6.2663 0.19301 0 1.0398 3.9535 2.4339 11.364l0.17172 0.91273 3.4435-4.6169c1.8939-2.5393 5.1621-6.9665 7.2627-9.8383 2.8342-3.8749 3.8614-5.103 3.9832-4.7625 0.0902 0.25239 0.24478 2.2448 0.34341 4.4276 0.0986 2.1828 0.22598 4.2069 0.283 4.4979 0.057 0.29104 0.12085 1.3031 0.14183 2.249 0.0287 1.2933 0.0999 1.5886 0.28714 1.1906 0.13694-0.29104 1.1867-3.8034 2.3328-7.8052 3.5326-12.335 3.8056-13.229 4.037-13.229 0.12349 0 0.22452 0.11161 0.22452 0.24803 0 0.3258 4.6264 11.61 4.8528 11.837 0.0959 0.09588 0.1812-1.6017 0.18959-3.7724 8e-3 -2.1707 0.0977-4.3911 0.19843-4.9343l0.18319-0.98757 2.6754 4.1626c7.912 12.31 11.856 18.28 12.014 18.183 0.0968-0.0598 0.69599-2.078 1.3316-4.4847 0.63558-2.4068 1.2627-4.376 1.3936-4.376s0.96925 0.57454 1.863 1.2768c3.5581 2.7956 13.699 10.395 14.053 10.531 0.20693 0.0794-1.7704-3.8248-4.394-8.6759-2.6236-4.8512-5.8472-10.819-7.1634-13.263-1.3162-2.4434-2.4821-4.4079-2.5908-4.3656-0.10869 0.04232-1.703 1.4462-3.5428 3.1196s-3.4324 3.0703-3.5389 3.1041c-0.10654 0.03378-1.3398-1.9903-2.7406-4.4979-5.7955-10.375-13.274-23.621-13.428-23.784-0.0907-0.09589-5.0229 7.0776-10.96 15.941-5.9376 8.8635-10.879 16.106-10.98 16.095-0.1015-0.01117-1.4347-1.722-2.9627-3.8019s-2.8554-3.7078-2.9499-3.6177c-0.26428 0.25217-14.722 26.286-14.931 26.887-0.20053 0.5753-0.04267 0.43001 9.7221-8.9473zm96.384 34.62c-0.55737-1.334-0.48085-2.3382 0.22899-3.0051 0.3368-0.31641 0.75579-0.57529 0.93108-0.57529 0.22063 0 0.2561-0.22392 0.11524-0.7276-0.11191-0.40018-0.19431-1.3824-0.18312-2.1828 0.054-3.8608 3.5849-7.0022 8.2594-7.3482 3.8588-0.28563 6.7991 2.2865 8.0054 7.003 0.28443 1.1121 0.54664 2.0464 0.58269 2.0761 0.036 0.0297 0.89897-0.0509 1.9176-0.17923 1.0186-0.12831 3.9322-0.47041 6.4746-0.76023 7.2539-0.8269 7.6141-0.69656 1.8214 0.65911-4.4387 1.0388-11.91 2.5726-11.994 2.4622-0.0318-0.042-0.18362-0.85024-0.33738-1.7961-0.88945-5.4716-3.3722-7.9092-7.3166-7.1835-2.3317 0.42894-3.8591 1.2927-4.8149 2.7228-1.268 1.8973-1.3041 2.8516-0.23548 6.23 0.17477 0.55257 0.14132 0.56588-0.74136 0.29498-0.50841-0.15604-1.2347-0.20582-1.614-0.11062-0.60097 0.15083-0.68962 0.3107-0.68962 1.2438 0 0.58888 0.12326 1.301 0.2739 1.5825 0.19265 0.35997 0.18864 0.51177-0.0135 0.51177-0.15807 0-0.45991-0.41289-0.67077-0.91754zm-90.608-2.6565c-0.65965-0.79482 0.27509-1.6031 1.0072-0.87093 0.44194 0.44194 0.3979 0.67919-0.18388 0.99055-0.37163 0.19889-0.58471 0.16794-0.82335-0.11962zm5.0289-2.2468c0-0.14552 0.11906-0.26459 0.26458-0.26459s0.26458 0.11907 0.26458 0.26459-0.11906 0.26458-0.26458 0.26458-0.26458-0.11906-0.26458-0.26458zm17.99-4.3678c-0.65965-0.79483 0.27509-1.6031 1.0072-0.87093 0.44195 0.44194 0.39791 0.67918-0.18388 0.99054-0.37163 0.1989-0.5847 0.16794-0.82335-0.11961zm43.975-0.15408c0.0684-0.20509 0.23344-0.37827 0.36683-0.38483 0.1334-7e-3 0.68259-0.10005 1.2204-0.20775l0.97789-0.19581-0.64716-0.95365c-0.83836-1.2354-0.81718-1.9408 0.0842-2.8044 0.7346-0.70378 2.6209-1.515 3.5228-1.515 0.29277 0 0.65741-0.36649 0.92439-0.92911 0.24249-0.51102 0.80703-1.2372 1.2545-1.6138 1.0952-0.92156 2.3002-0.73131 3.6372 0.57428 0.8379 0.81817 1.0635 0.91744 1.5246 0.6707 0.29762-0.15928 0.95334-0.28961 1.4572-0.28961 1.0646 0 2.2806 1.1786 2.8551 2.7675l0.34367 0.9504 1.4657-0.13116c4.2276-0.3783 5.534-0.41415 5.6934-0.15622 0.0978 0.15829-0.0884 0.27401-0.44177 0.27445-0.33601 5.3e-4 -2.0397 0.2382-3.7859 0.52841-1.7462 0.2902-3.2999 0.52799-3.4526 0.5284-0.15266 5.3e-4 -0.42828-0.416-0.61247-0.92537-0.44022-1.2174-1.5482-2.5134-2.1488-2.5134-0.26303 0-0.84412 0.41672-1.2913 0.92604-0.4472 0.50932-0.87319 0.92604-0.94666 0.92604-0.0735 0-0.32882-0.38695-0.56745-0.85989-0.59816-1.1855-1.7017-2.3151-2.2616-2.3151-0.42699 0-1.2552 0.94041-1.9708 2.2378-0.20481 0.37132-0.76653 0.59912-1.9837 0.80445-0.9339 0.15755-1.9659 0.43465-2.2933 0.61578-0.79644 0.44061-0.76265 1.3942 0.0851 2.4017 0.37423 0.44475 0.61584 0.91314 0.5369 1.0409-0.0789 0.12773-0.71255 0.3003-1.408 0.3835-0.69547 0.0832-1.4891 0.23823-1.7636 0.34452-0.36435 0.14106-0.46556 0.0925-0.37483-0.17965zm-23.424-2.4702c-0.18567-0.48385 0.48859-1.0514 1.0109-0.851 0.22013 0.0845 0.40024 0.39545 0.40024 0.69106 0 0.39051-0.17312 0.53747-0.63315 0.53747-0.34823 0-0.69834-0.16989-0.77802-0.37753zm2.0715-1.741c-0.0906-0.14655 0.0266-0.33985 0.26038-0.42956 0.50658-0.1944 0.78891 0.0198 0.5454 0.41382-0.2197 0.35549-0.59132 0.36275-0.80578 0.0157zm-20.439-11.945c-0.20992-0.20992-0.22352-0.45756-0.0436-0.79375 0.32117-0.60011 0.60706-0.61583 1.1592-0.0637 0.32807 0.32806 0.35514 0.50897 0.1188 0.79375-0.37231 0.4486-0.82606 0.47202-1.2344 0.0637z"/></g></symbol></svg>
